<svg width="26" height="26" viewBox="0 0 26 26" fill="none" xmlns="http://www.w3.org/2000/svg">
<path d="M16.6692 11.4453V11.4584M3.83949 8.02213C3.26687 7.58203 2.82709 6.99217 2.56874 6.31776C2.31039 5.64334 2.24355 4.91062 2.37559 4.20059C2.50763 3.49056 2.83342 2.83086 3.31695 2.29441C3.80048 1.75795 4.42291 1.36563 5.11547 1.16081C5.80802 0.955993 6.54372 0.946645 7.24125 1.1338C7.93879 1.32096 8.57099 1.69734 9.068 2.22133C9.565 2.74532 9.90744 3.39653 10.0575 4.10298C10.2075 4.80943 10.1593 5.54361 9.91819 6.22437" stroke="white" stroke-width="2" stroke-linecap="round" stroke-linejoin="round"/>
<path d="M17.9749 2.30664V7.27169C19.5906 8.20672 20.8207 9.68631 21.4451 11.4456H23.1958C23.5421 11.4456 23.8741 11.5831 24.119 11.828C24.3638 12.0728 24.5014 12.4049 24.5014 12.7511V15.3623C24.5014 15.7085 24.3638 16.0406 24.119 16.2854C23.8741 16.5303 23.5421 16.6678 23.1958 16.6678H21.4437C21.0051 17.9081 20.2596 19.0178 19.2791 19.8965V22.5428C19.2791 23.0622 19.0728 23.5603 18.7055 23.9276C18.3383 24.2949 17.8402 24.5012 17.3208 24.5012C16.8014 24.5012 16.3033 24.2949 15.936 23.9276C15.5688 23.5603 15.3624 23.0622 15.3624 22.5428V21.7817C14.931 21.8542 14.4943 21.8905 14.0569 21.8901H8.83463C8.39718 21.8905 7.96047 21.8542 7.52907 21.7817V22.5428C7.52907 23.0622 7.32275 23.5603 6.95549 23.9276C6.58822 24.2949 6.09011 24.5012 5.57073 24.5012C5.05134 24.5012 4.55323 24.2949 4.18597 23.9276C3.81871 23.5603 3.61239 23.0622 3.61239 22.5428V19.8965C2.4295 18.8389 1.59565 17.4471 1.22123 15.9052C0.846801 14.3633 0.949446 12.744 1.51558 11.2618C2.08171 9.7795 3.08463 8.5041 4.39159 7.60439C5.69855 6.70467 7.24793 6.22307 8.83463 6.22333H12.0985L17.9749 2.30664Z" stroke="white" stroke-width="2" stroke-linecap="round" stroke-linejoin="round"/>
</svg>
